<?xml version="1.0" encoding="UTF-8" standalone="no"?>
<svg
        xmlns:dc="http://purl.org/dc/elements/1.1/"
        xmlns:cc="http://creativecommons.org/ns#"
        xmlns:rdf="http://www.w3.org/1999/02/22-rdf-syntax-ns#"
        xmlns:svg="http://www.w3.org/2000/svg"
        xmlns="http://www.w3.org/2000/svg"
        id="svg963"
        version="1.1"
        viewBox="0 0 215.371 215.371"
        height="215.371mm"
        width="215.371mm">
    <defs
            id="defs957"/>
    <metadata
            id="metadata960">
        <rdf:RDF>
            <cc:Work
                    rdf:about="">
                <dc:format>image/svg+xml</dc:format>
                <dc:type
                        rdf:resource="http://purl.org/dc/dcmitype/StillImage"/>
                <dc:title></dc:title>
            </cc:Work>
        </rdf:RDF>
    </metadata>
    <g
            transform="translate(0,-81.629)"
            id="layer1">
        <path
                d="m 32.720228,141.68949 c 0,4.8708 -3.948642,8.81944 -8.819445,8.81944 -4.870803,0 -8.819445,-3.94864 -8.819445,-8.81944 0,-4.87081 3.948642,-8.81945 8.819445,-8.81945 4.870803,0 8.819445,3.94864 8.819445,8.81945"
                style="fill:none;stroke:#000000;stroke-width:2.64583349;stroke-linecap:butt;stroke-linejoin:miter;stroke-miterlimit:10;stroke-dasharray:none;stroke-opacity:1"
                id="path1539"/>
        <path
                d="m 116.50496,286.85755 c 0,4.8708 -3.94865,8.81945 -8.81945,8.81945 -4.8708,0 -8.819445,-3.94865 -8.819445,-8.81945 0,-4.8708 3.948645,-8.81944 8.819445,-8.81944 4.8708,0 8.81945,3.94864 8.81945,8.81944"
                style="fill:none;stroke:#000000;stroke-width:2.64583349;stroke-linecap:butt;stroke-linejoin:miter;stroke-miterlimit:10;stroke-dasharray:none;stroke-opacity:1"
                id="path1541"/>
        <path
                d="m 200.28968,141.68949 c 0,4.8708 -3.94864,8.81944 -8.81944,8.81944 -4.87081,0 -8.81945,-3.94864 -8.81945,-8.81944 0,-4.87081 3.94864,-8.81945 8.81945,-8.81945 4.8708,0 8.81944,3.94864 8.81944,8.81945"
                style="fill:none;stroke:#000000;stroke-width:2.64583349;stroke-linecap:butt;stroke-linejoin:miter;stroke-miterlimit:10;stroke-dasharray:none;stroke-opacity:1"
                id="path1543"/>
        <path
                d="m 147.37301,189.31449 c 0,21.91879 -17.76871,39.6875 -39.6875,39.6875 -21.91879,0 -39.687502,-17.76871 -39.687502,-39.6875 0,-21.91879 17.768712,-39.6875 39.687502,-39.6875 21.91879,0 39.6875,17.76871 39.6875,39.6875"
                style="fill:none;stroke:#000000;stroke-width:2.64583349;stroke-linecap:butt;stroke-linejoin:miter;stroke-miterlimit:10;stroke-dasharray:none;stroke-opacity:1"
                id="path1545"/>
        <g
                id="text1551"
                style="font-variant:normal;font-weight:normal;font-size:108.01572418px;font-family:Symbol;-inkscape-font-specification:Symbol;writing-mode:lr-tb;fill:#000000;fill-opacity:1;fill-rule:nonzero;stroke:none;stroke-width:0.2882612"
                transform="matrix(-0.04273208,0.8153774,1.2230667,0.06409822,0,0)"
                aria-label="∫">
            <path
                    id="path1665"
                    style="stroke-width:0.2882612"
                    d="m 165.34331,76.194732 c 0,-8.317211 -0.10801,-12.421808 -0.43206,-18.362673 -0.21603,-3.024441 -0.32405,-5.832849 -0.32405,-7.453085 0,-4.320629 1.18818,-6.804991 3.13246,-6.804991 0.64809,0 1.18817,0.216032 1.4042,0.648094 1.83627,2.916425 2.59238,3.564519 4.42865,3.564519 2.16031,0 3.78055,-1.51222 3.78055,-3.456503 0,-2.916424 -2.59238,-4.860707 -6.48095,-4.860707 -4.8607,0 -8.53324,3.132456 -10.04546,8.425226 -1.62023,5.832849 -2.70039,16.850453 -2.70039,28.192104 v 37.265424 c 0,7.77713 0.10801,11.6657 0.43206,18.25466 0.21603,3.13245 0.32405,6.37293 0.32405,8.10118 0,3.78055 -1.29619,6.26491 -3.34849,6.26491 -0.86412,0 -1.62023,-0.54008 -2.26833,-1.94428 -0.97214,-1.83627 -1.83627,-2.37635 -3.34849,-2.37635 -2.16031,0 -3.78055,1.51222 -3.78055,3.56452 0,2.80841 2.59238,4.75269 6.48095,4.75269 4.8607,0 8.53324,-3.13245 10.04546,-8.42523 1.62024,-5.83284 2.70039,-16.74243 2.70039,-28.1921 z"/>
        </g>
        <g
                id="text1555"
                style="font-variant:normal;font-weight:normal;font-size:108.0157547px;font-family:Symbol;-inkscape-font-specification:Symbol;writing-mode:lr-tb;fill:#000000;fill-opacity:1;fill-rule:nonzero;stroke:none;stroke-width:0.31518036"
                transform="matrix(-0.68477167,-0.44469608,-0.66704351,1.0271575,0,0)"
                aria-label="∫">
            <path
                    id="path1662"
                    style="stroke-width:0.31518036"
                    d="m -297.63575,62.564099 c 0,-8.317213 -0.10801,-12.421812 -0.43206,-18.362678 -0.21603,-3.024441 -0.32405,-5.832851 -0.32405,-7.453087 0,-4.320631 1.18818,-6.804993 3.13246,-6.804993 0.64809,0 1.18817,0.216032 1.4042,0.648095 1.83627,2.916425 2.59238,3.56452 4.42865,3.56452 2.16032,0 3.78055,-1.512221 3.78055,-3.456505 0,-2.916425 -2.59238,-4.860709 -6.48094,-4.860709 -4.86071,0 -8.53325,3.132457 -10.04547,8.425229 -1.62023,5.832851 -2.70039,16.850458 -2.70039,28.192112 v 37.265436 c 0,7.777131 0.10801,11.665701 0.43206,18.254661 0.21603,3.13246 0.32405,6.37293 0.32405,8.10118 0,3.78055 -1.29619,6.26492 -3.34849,6.26492 -0.86413,0 -1.62024,-0.54008 -2.26833,-1.94429 -0.97214,-1.83626 -1.83627,-2.37634 -3.34849,-2.37634 -2.16031,0 -3.78055,1.51222 -3.78055,3.56452 0,2.80841 2.59238,4.75269 6.48094,4.75269 4.86071,0 8.53325,-3.13246 10.04547,-8.42523 1.62024,-5.83285 2.70039,-16.74244 2.70039,-28.192111 z"/>
        </g>
        <g
                id="text1559"
                style="font-variant:normal;font-weight:normal;font-size:108.01564789px;font-family:Symbol;-inkscape-font-specification:Symbol;writing-mode:lr-tb;fill:#000000;fill-opacity:1;fill-rule:nonzero;stroke:none;stroke-width:0.30609936"
                transform="matrix(0.72750368,-0.37068147,-0.55602341,-1.0912555,0,0)"
                aria-label="∫">
            <path
                    id="path1659"
                    style="stroke-width:0.30609936"
                    d="m -48.380235,-197.91976 c 0,-8.3172 -0.108015,-12.4218 -0.432062,-18.36266 -0.216032,-3.02443 -0.324047,-5.83284 -0.324047,-7.45308 0,-4.32062 1.188172,-6.80498 3.132453,-6.80498 0.648094,0 1.188173,0.21603 1.404204,0.64809 1.836266,2.91642 2.592375,3.56452 4.428641,3.56452 2.160313,0 3.780548,-1.51222 3.780548,-3.4565 0,-2.91643 -2.592375,-4.86071 -6.480939,-4.86071 -4.860704,0 -8.533236,3.13246 -10.045455,8.42522 -1.620235,5.83285 -2.700391,16.85044 -2.700391,28.19209 v 37.2654 c 0,7.77712 0.108015,11.66569 0.432062,18.25464 0.216032,3.13245 0.324047,6.37292 0.324047,8.10117 0,3.78055 -1.296187,6.26491 -3.348485,6.26491 -0.864125,0 -1.620235,-0.54008 -2.268328,-1.94428 -0.972141,-1.83627 -1.836266,-2.37634 -3.348485,-2.37634 -2.160313,0 -3.780548,1.51221 -3.780548,3.56451 0,2.80841 2.592375,4.75269 6.480939,4.75269 4.860704,0 8.533236,-3.13245 10.045455,-8.42522 1.620235,-5.83284 2.700391,-16.74243 2.700391,-28.19208 z"/>
        </g>
        <path
                d="m 200.28968,236.93949 c 0,4.87081 -3.94864,8.81945 -8.81944,8.81945 -4.87081,0 -8.81945,-3.94864 -8.81945,-8.81945 0,-4.8708 3.94864,-8.81944 8.81945,-8.81944 4.8708,0 8.81944,3.94864 8.81944,8.81944"
                style="fill:none;stroke:#000000;stroke-width:2.64583349;stroke-linecap:butt;stroke-linejoin:miter;stroke-miterlimit:10;stroke-dasharray:none;stroke-opacity:1"
                id="path1561"/>
        <path
                d="m 116.50496,91.771428 c 0,4.870803 -3.94865,8.819442 -8.81945,8.819442 -4.8708,0 -8.819445,-3.948639 -8.819445,-8.819442 0,-4.870803 3.948645,-8.819445 8.819445,-8.819445 4.8708,0 8.81945,3.948642 8.81945,8.819445"
                style="fill:none;stroke:#000000;stroke-width:2.64583349;stroke-linecap:butt;stroke-linejoin:miter;stroke-miterlimit:10;stroke-dasharray:none;stroke-opacity:1"
                id="path1563"/>
        <path
                d="m 32.720228,236.93949 c 0,4.87081 -3.948642,8.81945 -8.819445,8.81945 -4.870803,0 -8.819445,-3.94864 -8.819445,-8.81945 0,-4.8708 3.948642,-8.81944 8.819445,-8.81944 4.870803,0 8.819445,3.94864 8.819445,8.81944"
                style="fill:none;stroke:#000000;stroke-width:2.64583349;stroke-linecap:butt;stroke-linejoin:miter;stroke-miterlimit:10;stroke-dasharray:none;stroke-opacity:1"
                id="path1565"/>
        <g
                id="text1571"
                style="font-variant:normal;font-weight:normal;font-size:108.01574707px;font-family:Symbol;-inkscape-font-specification:Symbol;writing-mode:lr-tb;fill:#000000;fill-opacity:1;fill-rule:nonzero;stroke:none;stroke-width:0.28813943"
                transform="matrix(-0.02849527,0.8159994,1.2239985,0.04274299,0,0)"
                aria-label="∫">
            <path
                    id="path1674"
                    style="stroke-width:0.28813943"
                    d="m 286.15017,77.010789 c 0,-8.317212 -0.10801,-12.421811 -0.43206,-18.362677 -0.21603,-3.024441 -0.32405,-5.83285 -0.32405,-7.453086 0,-4.32063 1.18817,-6.804992 3.13246,-6.804992 0.64809,0 1.18817,0.216031 1.4042,0.648094 1.83627,2.916425 2.59238,3.56452 4.42865,3.56452 2.16031,0 3.78055,-1.512221 3.78055,-3.456504 0,-2.916425 -2.59238,-4.860709 -6.48095,-4.860709 -4.8607,0 -8.53324,3.132457 -10.04546,8.425228 -1.62024,5.832851 -2.70039,16.850457 -2.70039,28.19211 v 37.265437 c 0,7.77713 0.10801,11.6657 0.43206,18.25466 0.21603,3.13245 0.32405,6.37293 0.32405,8.10118 0,3.78055 -1.29619,6.26491 -3.34849,6.26491 -0.86413,0 -1.62024,-0.54008 -2.26833,-1.94428 -0.97214,-1.83627 -1.83627,-2.37635 -3.34849,-2.37635 -2.16032,0 -3.78055,1.51222 -3.78055,3.56452 0,2.80841 2.59238,4.75269 6.48094,4.75269 4.86071,0 8.53325,-3.13245 10.04547,-8.42522 1.62023,-5.83285 2.70039,-16.74244 2.70039,-28.19211 z"/>
        </g>
        <g
                id="text1575"
                style="font-variant:normal;font-weight:normal;font-size:108.01574707px;font-family:Symbol;-inkscape-font-specification:Symbol;writing-mode:lr-tb;fill:#000000;fill-opacity:1;fill-rule:nonzero;stroke:none;stroke-width:0.30748138"
                transform="matrix(0.72092369,-0.38332172,-0.57498318,-1.0813856,0,0)"
                aria-label="∫">
            <path
                    id="path1671"
                    style="stroke-width:0.30748138"
                    d="m 68.002992,-193.41896 c 0,-8.31721 -0.108015,-12.42181 -0.432063,-18.36268 -0.216031,-3.02444 -0.324047,-5.83285 -0.324047,-7.45308 0,-4.32063 1.188173,-6.80499 3.132457,-6.80499 0.648094,0 1.188173,0.21603 1.404204,0.64809 1.836268,2.91642 2.592378,3.56452 4.428646,3.56452 2.160315,0 3.780551,-1.51222 3.780551,-3.4565 0,-2.91643 -2.592378,-4.86071 -6.480945,-4.86071 -4.860708,0 -8.533244,3.13245 -10.045464,8.42522 -1.620236,5.83286 -2.700394,16.85046 -2.700394,28.19211 v 37.26544 c 0,7.77713 0.108016,11.6657 0.432063,18.25466 0.216032,3.13246 0.324047,6.37293 0.324047,8.10118 0,3.78055 -1.296189,6.26491 -3.348488,6.26491 -0.864126,0 -1.620236,-0.54008 -2.26833,-1.94428 -0.972142,-1.83627 -1.836268,-2.37635 -3.348489,-2.37635 -2.160315,0 -3.780551,1.51222 -3.780551,3.56452 0,2.80841 2.592378,4.7527 6.480945,4.7527 4.860709,0 8.533244,-3.13246 10.045465,-8.42523 1.620236,-5.83285 2.700393,-16.74244 2.700393,-28.19211 z"/>
        </g>
        <g
                id="text1579"
                style="font-variant:normal;font-weight:normal;font-size:108.01564789px;font-family:Symbol;-inkscape-font-specification:Symbol;writing-mode:lr-tb;fill:#000000;fill-opacity:1;fill-rule:nonzero;stroke:none;stroke-width:0.31040311"
                transform="matrix(-0.70710679,-0.40824808,-0.61237272,1.0606602,0,0)"
                aria-label="∫">
            <path
                    id="path1668"
                    style="stroke-width:0.31040311"
                    d="m -166.12533,71.803617 c 0,-8.317205 -0.10801,-12.4218 -0.43206,-18.36266 -0.21603,-3.024439 -0.32405,-5.832845 -0.32405,-7.45308 0,-4.320626 1.18817,-6.804986 3.13246,-6.804986 0.64809,0 1.18817,0.216031 1.4042,0.648094 1.83626,2.916422 2.59237,3.564516 4.42864,3.564516 2.16031,0 3.78055,-1.512219 3.78055,-3.4565 0,-2.916423 -2.59238,-4.860705 -6.48094,-4.860705 -4.86071,0 -8.53324,3.132454 -10.04546,8.425221 -1.62023,5.832845 -2.70039,16.850441 -2.70039,28.192084 V 108.961 c 0,7.77713 0.10802,11.66569 0.43207,18.25464 0.21603,3.13246 0.32404,6.37293 0.32404,8.10118 0,3.78055 -1.29619,6.26491 -3.34848,6.26491 -0.86413,0 -1.62024,-0.54008 -2.26833,-1.94429 -0.97214,-1.83626 -1.83627,-2.37634 -3.34849,-2.37634 -2.16031,0 -3.78054,1.51222 -3.78054,3.56452 0,2.8084 2.59237,4.75268 6.48093,4.75268 4.86071,0 8.53324,-3.13245 10.04546,-8.42522 1.62023,-5.83284 2.70039,-16.74242 2.70039,-28.19208 z"/>
        </g>
    </g>
</svg>
